<svg width="20" height="20" viewBox="0 0 20 20" fill="none" xmlns="http://www.w3.org/2000/svg">
<path fill-rule="evenodd" clip-rule="evenodd" d="M10.777 12.4368C12.8275 17.9192 11.7267 20.201 8.40282 19.9862C5.07896 19.7714 4.66744 16.6411 7.86467 12.4368C4.27251 16.2603 2.5298 17.05 0.3939 14.2168C-1.00022 10.7973 1.33472 9.3863 6.94666 9.64417C0.961225 8.11882 -0.714054 5.25571 1.59682 3.32233C3.9077 1.38895 6.66604 3.40173 9.0676 8.53938C7.1271 1.74988 7.3693 -0.434605 11.6634 0.069346C15.4019 1.12577 15.5005 2.86669 12.2015 7.58803C16.1332 4.11835 17.8504 3.34897 19.7673 5.47053C20.6826 8.15862 18.9126 9.92036 14.1958 10.2579C18.542 11.3183 19.5215 12.4469 18.2478 15.567C15.3516 18.3892 13.5574 17.0199 10.777 12.4368ZM10.0982 11.5389C9.46509 11.5389 8.80757 10.4433 9.93993 9.51344C10.9076 9.32145 11.4266 9.47649 11.4911 10.5262C11.448 11.2752 10.7313 11.5389 10.0982 11.5389Z" fill="#35C67D"/>
</svg>
